<?xml version="1.0" standalone="no"?>
<!DOCTYPE svg PUBLIC "-//W3C//DTD SVG 20010904//EN"
 "http://www.w3.org/TR/2001/REC-SVG-20010904/DTD/svg10.dtd">
<svg version="1.0" xmlns="http://www.w3.org/2000/svg"
 width="400.000000pt" height="400.000000pt" viewBox="0 0 400.000000 400.000000"
 preserveAspectRatio="xMidYMid meet">
<metadata>
Created by potrace 1.11, written by Peter Selinger 2001-2013
</metadata>
<g transform="translate(0.000000,400.000000) scale(0.100000,-0.100000)"
fill="#000000" stroke="none">
<path d="M0 2000 l0 -2000 2000 0 2000 0 0 2000 0 2000 -2000 0 -2000 0 0
-2000z m1568 467 c6 -7 12 -30 14 -51 3 -36 6 -40 45 -51 59 -17 112 -53 134
-89 23 -37 25 -121 5 -170 -16 -38 -77 -91 -124 -109 -31 -11 -33 -14 -28 -46
6 -41 -8 -71 -33 -71 -22 0 -31 19 -31 64 0 32 -1 33 -51 39 -68 8 -107 33
-148 92 -29 45 -32 55 -27 98 3 27 13 63 23 79 24 41 81 86 129 103 36 12 39
17 44 57 8 64 25 83 48 55z m612 -81 c0 -7 -7 -19 -16 -27 -8 -7 -22 -25 -30
-40 -7 -15 -36 -55 -64 -88 -27 -33 -50 -65 -50 -71 0 -6 29 -51 65 -101 64
-89 72 -119 34 -119 -13 0 -41 30 -82 85 l-62 85 -66 -72 c-64 -70 -89 -81
-89 -38 0 10 25 50 55 88 30 39 55 73 55 77 0 3 -23 44 -51 90 -49 80 -59 122
-25 109 7 -3 37 -39 66 -79 l53 -75 41 48 c106 123 166 170 166 128z m341 -44
c30 -15 64 -43 77 -62 20 -30 23 -45 20 -102 -4 -81 -21 -107 -104 -163 -53
-36 -65 -40 -119 -40 -155 1 -259 108 -225 231 39 139 215 207 351 136z
m-1110 -552 c32 0 59 -4 59 -9 0 -22 -34 -41 -72 -41 l-40 0 7 -132 c3 -73 11
-169 16 -213 10 -84 4 -101 -29 -91 -26 8 -30 40 -38 256 l-7 175 -44 -4 c-39
-3 -44 -1 -41 15 2 13 17 22 45 29 23 6 45 14 49 18 4 4 14 5 22 2 7 -3 40 -5
73 -5z m754 -12 c3 -7 6 -101 8 -208 2 -162 5 -201 20 -229 23 -45 22 -51 -8
-51 -44 0 -58 46 -63 207 -6 178 4 293 24 293 8 0 17 -6 19 -12z m-657 -137
c8 -4 12 -19 10 -32 -2 -18 -8 -23 -23 -21 -29 5 -34 14 -24 40 9 24 16 26 37
13z m787 -26 c0 -24 -4 -29 -20 -27 -27 5 -28 7 -21 37 10 38 41 30 41 -10z
m-647 -53 c3 -18 6 -21 17 -12 8 6 24 10 37 8 19 -2 24 -11 28 -43 5 -37 6
-38 13 -13 11 40 55 88 82 88 30 0 37 -22 30 -95 -3 -36 0 -85 8 -123 15 -67
14 -72 -15 -72 -24 0 -38 37 -47 130 l-7 75 -18 -55 c-11 -30 -20 -74 -20 -98
-1 -39 -3 -43 -25 -40 -27 3 -33 18 -46 113 -7 46 -8 48 -17 25 -6 -14 -10
-51 -10 -83 0 -62 -14 -81 -43 -57 -12 10 -15 37 -15 124 0 61 3 121 6 134 8
29 38 25 42 -6z m789 13 c5 -14 7 -14 23 0 10 9 29 15 42 13 22 -3 23 -7 29
-128 3 -69 8 -131 12 -137 9 -15 -17 -35 -36 -28 -19 8 -27 48 -28 144 l-1 76
-19 -40 c-12 -27 -19 -62 -19 -107 0 -69 -7 -79 -39 -59 -18 12 -25 91 -16
196 6 75 9 85 26 85 11 0 22 -7 26 -15z m-402 -19 c20 -31 12 -67 -26 -107
-22 -23 -27 -37 -23 -55 8 -33 21 -38 34 -14 12 23 38 27 46 6 15 -38 -48 -86
-87 -66 -36 20 -52 68 -47 142 4 54 10 74 28 93 30 31 55 32 75 1z m669 8 c28
-28 20 -59 -35 -135 -13 -17 -5 -69 11 -69 5 0 12 9 15 21 9 28 40 20 40 -10
0 -14 -11 -32 -28 -45 -26 -19 -30 -19 -55 -6 -37 21 -56 84 -47 155 10 86 59
130 99 89z m-1195 -18 c15 -18 20 -228 6 -232 -27 -9 -36 16 -42 113 -7 125 3
159 36 119z m781 4 c11 -7 17 -37 21 -117 4 -59 3 -112 -1 -116 -4 -5 -17 -4
-29 2 -19 11 -21 20 -21 126 0 63 3 115 8 115 4 0 14 -5 22 -10z"/>
<path d="M1593 2269 c3 -24 9 -83 13 -131 4 -52 11 -88 17 -88 21 0 77 45 87
71 6 14 10 48 8 74 -3 41 -8 52 -38 76 -19 15 -48 31 -64 35 l-29 7 6 -44z"/>
<path d="M1458 2273 c-50 -28 -68 -59 -68 -120 0 -52 54 -103 109 -103 40 0
41 1 41 33 0 92 -14 217 -24 217 -6 0 -32 -12 -58 -27z"/>
<path d="M2324 2286 c-66 -31 -86 -56 -91 -113 -12 -139 160 -193 288 -91 40
33 53 123 23 166 -40 57 -141 74 -220 38z m194 -115 c4 -41 -11 -60 -33 -41
-10 9 -43 11 -115 8 l-100 -4 0 28 c0 32 19 47 34 27 16 -21 176 -14 176 7 0
9 7 14 18 12 11 -2 18 -14 20 -37z"/>
</g>
</svg>
